<?xml version="1.0" encoding="UTF-8" standalone="no"?>
<!-- Created with Inkscape (http://www.inkscape.org/) -->

<svg
   width="56"
   height="47.416"
   viewBox="0 0 14.816666 12.545483"
   version="1.1"
   id="svg5"
   sodipodi:docname="aimlab-logo-weiss.svg"
   inkscape:version="1.2 (dc2aeda, 2022-05-15)"
   xmlns:inkscape="http://www.inkscape.org/namespaces/inkscape"
   xmlns:sodipodi="http://sodipodi.sourceforge.net/DTD/sodipodi-0.dtd"
   xmlns="http://www.w3.org/2000/svg"
   xmlns:svg="http://www.w3.org/2000/svg">
  <sodipodi:namedview
     id="namedview3484"
     pagecolor="#505050"
     bordercolor="#eeeeee"
     borderopacity="1"
     inkscape:showpageshadow="0"
     inkscape:pageopacity="0"
     inkscape:pagecheckerboard="0"
     inkscape:deskcolor="#505050"
     showgrid="false"
     inkscape:zoom="4.9772228"
     inkscape:cx="28.730882"
     inkscape:cy="24.109831"
     inkscape:window-width="1699"
     inkscape:window-height="924"
     inkscape:window-x="0"
     inkscape:window-y="25"
     inkscape:window-maximized="0"
     inkscape:current-layer="svg5" />
  <defs
     id="defs2" />
  <g
     id="layer1"
     style="stroke:#353a3f;stroke-opacity:1;stroke-width:0.15874999;stroke-dasharray:none">
    <path
       style="fill:#ffffff;fill-opacity:1;stroke-width:0.15874999;stroke:#353a3f;stroke-opacity:1;stroke-dasharray:none"
       d="m 0,12.541719 c 0,-0.002 0.100154,-0.220948 0.222563,-0.48658 0.12241,-0.265633 0.241406,-0.524365 0.264434,-0.574959 0.02303,-0.0506 0.106081,-0.23143 0.18456,-0.401854 C 0.750037,10.907901 0.921533,10.53534 1.052662,10.250412 1.183791,9.9654832 1.377337,9.5449902 1.482765,9.3159822 1.588191,9.0869732 1.746622,8.7427352 1.834832,8.5510082 1.923042,8.3592802 2.114528,7.9431442 2.260357,7.6262612 2.406185,7.3093772 2.55797,6.9792552 2.597656,6.8926542 l 0.07216,-0.157453 0.418592,0.0025 0.418592,0.0025 0.310958,0.672984 c 0.171027,0.37014 0.637659,1.381068 1.036959,2.246505 1.157685,2.5091468 1.31545,2.8506948 1.32506,2.8686518 0.0086,0.01602 -0.01525,0.01694 -0.436464,0.01692 H 5.297979 L 5.217169,12.363725 C 5.172729,12.263875 5.091468,12.081967 5.036595,11.959474 4.854817,11.553694 4.4327,10.609333 4.344071,10.410161 4.315631,10.346251 4.244631,10.187205 4.186283,10.056724 4.030461,9.7082472 3.98115,9.5978082 3.842554,9.2869082 3.773704,9.1324612 3.70258,8.9734142 3.684503,8.9334712 3.666423,8.8935312 3.57768,8.6952642 3.48729,8.4928842 3.3969,8.2905052 3.281001,8.0312382 3.229735,7.9167332 3.178465,7.8022302 3.125219,7.6832792 3.111399,7.6523982 c -0.01382,-0.03088 -0.02815,-0.05267 -0.03184,-0.04842 -0.0037,0.0043 -0.03587,0.07309 -0.07151,0.152978 -0.03564,0.07989 -0.09878,0.221504 -0.140316,0.314705 C 2.779823,8.2689022 2.71736,8.4088362 2.597569,8.6768622 2.267518,9.4153262 1.824058,10.40792 1.665284,10.763594 1.513997,11.102492 1.377152,11.408656 1.17621,11.857797 1.09162,12.046861 0.988281,12.278831 0.946557,12.373284 l -0.07586,0.171733 -0.435349,1.01e-4 C 0.195907,12.545219 0,12.543618 0,12.541618 Z M 8.539726,9.6402452 v -2.905088 l 0.34642,0.0025 0.346419,0.0025 0.05541,0.09199 c 0.03047,0.0506 0.146189,0.242322 0.257146,0.426061 0.110958,0.183739 0.265973,0.440829 0.344477,0.571309 0.0785,0.130482 0.241306,0.400644 0.36178,0.60036 0.120475,0.199716 0.318733,0.528703 0.440574,0.731083 0.121841,0.202379 0.240239,0.398464 0.263106,0.435744 0.02287,0.03728 0.100293,0.165825 0.172057,0.285655 0.07176,0.1198288 0.149239,0.2483738 0.172166,0.2856548 0.02293,0.03728 0.120164,0.197834 0.216082,0.356785 0.162647,0.269533 0.175337,0.287684 0.188337,0.269419 0.0077,-0.01077 0.0663,-0.108144 0.130301,-0.21638 0.102504,-0.173352 0.342518,-0.577081 0.660997,-1.1118578 0.0555,-0.0932 0.200653,-0.337217 0.322554,-0.542259 0.1219,-0.205043 0.303325,-0.510063 0.403166,-0.677825 0.167293,-0.281099 0.408694,-0.68713 0.757052,-1.273342 l 0.138101,-0.232398 0.342338,-0.0025 c 0.267348,-0.002 0.344052,1.01e-4 0.35017,0.0097 0.0043,0.0067 0.0079,1.314019 0.0081,2.905092 l 2.02e-4,2.8928588 h -0.403423 -0.403421 l 4.04e-4,-0.476898 c 2.02e-4,-0.262293 -0.0018,-0.866889 -0.0045,-1.343546 -0.0027,-0.476655 -0.0051,-1.2126328 -0.0053,-1.6355038 l -4.04e-4,-0.768857 -0.104804,0.173338 c -0.05764,0.09534 -0.234069,0.386856 -0.392062,0.647818 -0.157992,0.260963 -0.392487,0.648776 -0.521101,0.8618068 -0.128613,0.21303 -0.24604,0.406936 -0.260951,0.430902 -0.01491,0.02397 -0.112413,0.185192 -0.216673,0.358279 -0.10426,0.173088 -0.214953,0.356101 -0.245986,0.406695 -0.03103,0.0506 -0.128402,0.21182 -0.216377,0.358279 -0.08798,0.146458 -0.166126,0.271217 -0.173666,0.277241 -0.02164,0.01729 -0.370846,0.01811 -0.388267,9.09e-4 -0.0074,-0.0073 -0.489432,-0.794656 -1.071126,-1.749617 l -1.057628,-1.7362908 -0.0025,2.0977208 -0.0025,2.097719 H 8.943052 8.539701 V 9.6402422 Z"
       id="path876" />
    <path
       style="fill:#ffffff;fill-opacity:1;stroke-width:0.15874999;stroke:#353a3f;stroke-opacity:1;stroke-dasharray:none"
       d="m 6.830619,9.9236032 c 0.0035,-2.868866 -0.0011,-2.639283 0.05712,-2.86381 0.08086,-0.311711 0.248415,-0.604031 0.475759,-0.830013 0.245999,-0.244525 0.525144,-0.405124 0.854566,-0.491651 0.219911,-0.05776 0.258987,-0.06022 1.02511,-0.06455 0.544037,-0.0031 0.717021,-0.007 0.782152,-0.01776 0.499075,-0.08241 0.912442,-0.426032 1.08113,-0.898711 0.07912,-0.221695 0.09856,-0.465929 0.05504,-0.691381 -0.0356,-0.184396 -0.145098,-0.424626 -0.336768,-0.738812 -0.31214,-0.511665 -0.662603,-0.921222 -1.124067,-1.313609 -0.653915,-0.556031 -1.500164,-0.967044 -2.359423,-1.14594795 -0.152841,-0.03182 -0.418077,-0.07335 -0.528147,-0.08269 -0.03788,-0.0032 -0.07422,-0.0075 -0.08076,-0.0095 -0.07654,-0.02367 -0.809494,-0.02435 -1.045736,-0.001 -0.67604,0.06691 -1.274935,0.23362895 -1.864375,0.51901495 -0.686448,0.332353 -1.255537,0.771791 -1.749097,1.350615 -0.330312,0.387373 -0.677888,0.943743 -0.778315,1.245859 -0.16077,0.483647 -0.0292,1.022271 0.338059,1.383944 0.261944,0.257962 0.590208,0.395257 0.949715,0.397216 0.185292,10e-4 0.29157,-0.0393 0.408556,-0.154957 0.109196,-0.107955 0.109243,-0.108089 0.285199,-0.81544 0.268235,-1.078318 0.330896,-1.330671 0.398754,-1.605905 0.07149,-0.289983 0.09765,-0.357994 0.16677,-0.43366 0.239569,-0.262255 0.687816,-0.167912 0.795222,0.167371 0.0085,0.02663 0.02706,0.126851 0.04117,0.222714 0.01411,0.09586 0.03872,0.261448 0.05469,0.367963 0.01597,0.106515 0.03541,0.237238 0.04321,0.290496 0.0078,0.05326 0.03008,0.201411 0.04951,0.329229 0.01943,0.127819 0.05303,0.350048 0.07467,0.493844 0.02164,0.143796 0.05481,0.363847 0.07371,0.489002 0.03379,0.223732 0.05923,0.394424 0.08732,0.585835 0.0196,0.133619 0.120729,0.802777 0.138115,0.913927 0.0078,0.04997 0.01558,0.0922 0.01724,0.09384 0.0017,0.0016 0.04602,-0.180861 0.09856,-0.40556 0.262498,-1.122681 0.332742,-1.412532 0.360305,-1.486745 0.06595,-0.177565 0.170597,-0.332222 0.321016,-0.474419 0.176324,-0.166688 0.348399,-0.260825 0.600054,-0.328273 l 0.09838,-0.02637 0.956783,-0.0029 0.956784,-0.0029 v 0.378007 0.378007 H 7.720293 c -0.97827,0 -0.941221,-0.0021 -1.069533,0.06069 -0.03956,0.01936 -0.08875,0.05558 -0.128965,0.09495 -0.104417,0.102235 -0.121274,0.145867 -0.220443,0.570595 -0.04663,0.199717 -0.160106,0.683393 -0.252165,1.074837 -0.09206,0.391443 -0.231275,0.984055 -0.309367,1.316916 -0.09749,0.415528 -0.15023,0.621893 -0.168291,0.658458 -0.0306,0.06195 -0.118242,0.156487 -0.17595,0.189782 -0.145713,0.08407 -0.335631,0.08549 -0.481296,0.0036 -0.0559,-0.03143 -0.128646,-0.101985 -0.165146,-0.160176 -0.05015,-0.07996 -0.04883,-0.07339 -0.149527,-0.744919 -0.02475,-0.165098 -0.07355,-0.489728 -0.108431,-0.721398 -0.03488,-0.231672 -0.07005,-0.466973 -0.07815,-0.522894 -0.0081,-0.05592 -0.02797,-0.188823 -0.04415,-0.295338 -0.04705,-0.309718 -0.144742,-0.960041 -0.197711,-1.3161 -0.02687,-0.180627 -0.05056,-0.330094 -0.05265,-0.332149 -0.0021,-0.0021 -0.05547,0.204556 -0.118619,0.459136 -0.06315,0.254579 -0.12613,0.499911 -0.13995,0.545179 -0.116284,0.380907 -0.427353,0.699123 -0.817579,0.836362 -0.300236,0.105591 -0.719828,0.09076 -1.118021,-0.03952 -0.687802,-0.225039 -1.21316,-0.780959 -1.39817,-1.479503 -0.04557,-0.172064 -0.06501,-0.311416 -0.06821,-0.489003 -0.0085,-0.469963 0.11233,-0.842711 0.455039,-1.404065 0.61402,-1.005757 1.492074,-1.805895 2.545198,-2.31933895 0.691238,-0.337009 1.35175,-0.524577 2.144769,-0.609055 0.194999,-0.0207700001 0.80281,-0.0282 1.037951,-0.01268 0.620238,0.04094 1.269184,0.188032 1.859457,0.421478 1.374366,0.54355 2.524594,1.57875795 3.186861,2.86818795 0.112095,0.218247 0.156874,0.330891 0.202656,0.509801 0.08508,0.332465 0.08525,0.675748 5.05e-4,1.010682 -0.04281,0.169188 -0.09036,0.293972 -0.171439,0.44989 -0.18055,0.347199 -0.435229,0.625024 -0.763902,0.833331 -0.266905,0.169158 -0.635492,0.293657 -0.954326,0.322344 -0.05411,0.0049 -0.392797,0.0095 -0.752636,0.0103 -0.718774,0.0016 -0.748478,0.0036 -0.912656,0.06054 -0.164464,0.05707 -0.288574,0.133923 -0.411194,0.254609 -0.154127,0.151696 -0.253981,0.331422 -0.300634,0.541108 -0.01852,0.08325 -0.019,0.151101 -0.01865,2.670146 L 7.605271,12.54543 H 7.216349 6.827426 l 0.0031,-2.6217288 z"
       id="path874" />
  </g>
</svg>
