<?xml version="1.0" encoding="UTF-8" standalone="no"?>
<svg
   version="1.1"
   viewBox="0 0 56 21.594"
   id="svg54"
   width="56"
   height="21.594"
   xmlns="http://www.w3.org/2000/svg"
   xmlns:svg="http://www.w3.org/2000/svg">
  <defs
     id="defs58" />
  <g
     stroke-width="2"
     fill="none"
     stroke-linecap="butt"
     id="g26"
     transform="matrix(0.15673981,0,0,0.15673981,-3.1347962,-5.1332214)">
    <path
       stroke="#839ab2"
       vector-effect="non-scaling-stroke"
       d="M 41.85,109.18 A 0.35,0.35 0 0 1 41.5,108.83 V 41.1 a 0.35,0.35 0 0 1 0.35,-0.35 l 82.05,-0.01 a 0.35,0.35 0 0 0 0.35,-0.35 V 34.1 A 0.35,0.35 0 0 0 123.9,33.75 H 34.99 A 0.35,0.35 0 0 0 34.64,34.1 L 34.56,116 a 0.35,0.35 0 0 0 0.35,0.35 l 75.19,-0.07 a 0.35,0.35 0 0 0 0.35,-0.34 l 0.19,-6.04 a 0.35,0.35 0 0 0 -0.35,-0.36 l -68.44,-0.36"
       id="path2" />
    <path
       stroke="#839ab2"
       vector-effect="non-scaling-stroke"
       d="m 168.55,33.75 a 0.34,0.34 0 0 0 -0.32,0.21 l -50.36,119.48 a 0.34,0.34 0 0 0 0.04,0.34 l 3.99,5.3 a 0.34,0.34 0 0 0 0.59,-0.07 L 175.07,34.22 a 0.34,0.34 0 0 0 -0.31,-0.47 h -6.21"
       id="path4" />
    <path
       stroke="#839ab2"
       vector-effect="non-scaling-stroke"
       d="m 207.36,109.34 a 0.32,0.32 0 0 1 -0.29,-0.19 l -28.1,-66.63 a 0.32,0.32 0 0 0 -0.59,0 l -51.1,121.29 a 0.32,0.32 0 0 0 0.29,0.44 h 6.21 a 0.32,0.32 0 0 0 0.29,-0.2 l 20.06,-47.27 a 0.32,0.32 0 0 1 0.29,-0.19 l 68.9,-0.34 a 0.32,0.32 0 0 0 0.29,-0.44 l -34.5,-81.86 a 0.32,0.32 0 0 0 -0.29,-0.2 h -6.22 a 0.32,0.32 0 0 0 -0.29,0.44 l 31.37,74.77 a 0.32,0.32 0 0 1 -0.3,0.44 l -6.02,-0.06"
       id="path6" />
    <path
       stroke="#839ab2"
       vector-effect="non-scaling-stroke"
       d="m 248.54,158.97 a 0.41,0.41 0 0 0 0.71,0.09 l 3.84,-5.23 a 0.41,0.41 0 0 0 0.05,-0.4 L 202.9,34 a 0.41,0.41 0 0 0 -0.38,-0.25 h -6.05 a 0.41,0.41 0 0 0 -0.38,0.57 l 52.45,124.65"
       id="path8" />
    <path
       stroke="#839ab2"
       vector-effect="non-scaling-stroke"
       d="m 338.5,133.79 c -8.3,13.97 -26.94,18.88 -41.17,12.13 Q 280.17,137.79 280.1,117.75 279.97,76.04 280,34.3 q 0,-0.55 -0.54,-0.55 h -5.94 q -0.48,0 -0.48,0.48 -0.05,36.64 -0.04,73.27 0.01,14.61 1.21,19.9 c 7.7,34.03 56.04,38.36 71.08,7.85 q 3.46,-7.03 3.46,-14.5 0,-39.85 0,-79.76 0,-1.29 -0.94,-0.4 l -5.42,5.17 q -0.45,0.42 -0.44,1.04 0.2,31.71 -0.09,63.44 -0.05,6.12 -0.88,8.95 c -5.95,20.26 -37.87,21.29 -45.55,1.82 q -1.41,-3.57 -1.41,-10.83 -0.05,-37.94 -0.01,-75.89 0,-0.54 -0.53,-0.54 h -5.76 a 0.71,0.71 0 0 0 -0.71,0.71 q -0.03,38.23 0.01,76.45 c 0.02,28.42 29.7,40.24 51.29,22.72 q 0.54,-0.43 0.19,0.16"
       id="path10" />
    <path
       stroke="#839ab2"
       vector-effect="non-scaling-stroke"
       d="m 344.09,157.27 c 14.62,-13.91 18.5,-23.89 18.55,-44.78 q 0.09,-39.15 -0.25,-78.31 0,-0.43 -0.43,-0.43 h -5.69 q -0.51,0 -0.51,0.5 -0.05,38.41 0.01,76.81 0.02,12.36 -1.4,18.25 c -7.97,32.93 -48.32,43.33 -73.3,22.39 q -9.83,-8.24 -13.14,-20.8 -1.42,-5.37 -1.43,-16.42 -0.04,-37.12 -0.29,-74.26 0,-0.57 -0.42,-0.18 l -5.83,5.55 q -0.45,0.43 -0.45,1.04 -0.04,34.16 0.01,68.31 0.02,11.19 1.43,16.87 c 7.18,28.88 34.3,39.88 61.74,37.36 25.01,-2.29 47.13,-19.1 52.33,-44 q 1.23,-5.92 1.23,-19.92 0,-35.04 0.03,-71.2 a 0.3,0.3 0 0 0 -0.3,-0.3 h -5.97 q -0.54,0 -0.54,0.53 0.1,33.78 -0.02,67.54 -0.06,15.8 -0.75,19.96 c -2.51,14.94 -11.72,27.6 -24.43,35.72 q -1.28,0.82 -0.18,-0.23"
       id="path12" />
    <path
       stroke="#839ab2"
       vector-effect="non-scaling-stroke"
       d="M 27.98,40.15 A 0.31,0.31 0 0 0 27.46,39.92 L 21.1,45.94 A 0.31,0.31 0 0 0 21,46.16 v 117.78 a 0.31,0.31 0 0 0 0.31,0.31 h 6.38 A 0.31,0.31 0 0 0 28,163.94 L 27.98,40.15"
       id="path14" />
    <path
       stroke="#839ab2"
       vector-effect="non-scaling-stroke"
       d="M 56.16,61.25 A 0.33,0.33 0 0 1 55.83,60.94 L 55.5,54.6 a 0.33,0.33 0 0 1 0.33,-0.35 h 68.09 a 0.33,0.33 0 0 0 0.33,-0.33 v -6.34 a 0.33,0.33 0 0 0 -0.33,-0.33 H 48.83 a 0.33,0.33 0 0 0 -0.33,0.33 v 54.59 a 0.33,0.33 0 0 0 0.33,0.33 h 65.49 a 0.33,0.33 0 0 0 0.24,-0.1 l 5.95,-6.34 A 0.33,0.33 0 0 0 120.27,95.5 H 56.11 A 0.33,0.33 0 0 1 55.78,95.17 L 55.51,68.58 a 0.33,0.33 0 0 1 0.33,-0.33 h 55.4 a 0.33,0.33 0 0 0 0.24,-0.1 l 6.33,-6.34 a 0.33,0.33 0 0 0 -0.24,-0.56 H 56.16"
       id="path16" />
    <path
       stroke="#839ab2"
       vector-effect="non-scaling-stroke"
       d="m 48.16,130 a 0.3,0.3 0 0 1 0.3,0.3 l 0.13,27.59 a 0.3,0.3 0 0 0 0.51,0.21 l 6.31,-6.3 a 0.3,0.3 0 0 0 0.09,-0.21 V 130.3 a 0.3,0.3 0 0 1 0.3,-0.3 h 54.36 a 0.3,0.3 0 0 0 0.3,-0.29 l 0.14,-6.4 A 0.3,0.3 0 0 0 110.3,123 H 35.08 a 0.3,0.3 0 0 0 -0.3,0.3 l -0.09,40.65 a 0.3,0.3 0 0 0 0.3,0.3 h 6.21 a 0.3,0.3 0 0 0 0.3,-0.3 V 130.3 a 0.3,0.3 0 0 1 0.3,-0.3 h 6.36"
       id="path18" />
    <path
       stroke="#839ab2"
       vector-effect="non-scaling-stroke"
       d="m 159.8,137 a 0.31,0.31 0 0 1 -0.28,-0.43 l 2.74,-6.38 a 0.31,0.31 0 0 1 0.28,-0.19 h 59.85 a 0.31,0.31 0 0 1 0.29,0.19 l 14.34,33.99 a 0.31,0.31 0 0 0 0.29,0.19 l 6.14,-0.17 a 0.31,0.31 0 0 0 0.27,-0.43 L 226.68,123.19 A 0.31,0.31 0 0 0 226.39,123 h -67.92 a 0.31,0.31 0 0 0 -0.29,0.19 l -17.06,40.63 a 0.31,0.31 0 0 0 0.29,0.43 h 6.23 a 0.31,0.31 0 0 0 0.29,-0.19 l 8.46,-20.18 a 0.31,0.31 0 0 1 0.29,-0.19 l 57.79,0.06 a 0.31,0.31 0 0 1 0.29,0.19 l 8.49,20.22 a 0.31,0.31 0 0 0 0.29,0.19 l 6.17,-0.14 a 0.31,0.31 0 0 0 0.27,-0.43 L 218.86,137.19 A 0.31,0.31 0 0 0 218.57,137 H 159.8"
       id="path20" />
    <path
       stroke="#839ab2"
       vector-effect="non-scaling-stroke"
       d="m 178.37,59.09 -20.83,49.72 q -0.19,0.44 0.29,0.44 h 5.63 q 0.54,0 0.75,-0.5 8.49,-20.14 17.13,-40.21 c 1.27,-2.94 -1.21,-6.83 -2.42,-9.46 a 0.3,0.3 0 0 0 -0.55,0.01"
       id="path22" />
    <path
       stroke="#839ab2"
       vector-effect="non-scaling-stroke"
       d="m 171.31,108.8 a 0.33,0.33 0 0 0 0.31,0.45 h 27.92 a 0.33,0.33 0 0 0 0.31,-0.45 L 185.88,75.47 a 0.33,0.33 0 0 0 -0.6,0 l -13.97,33.33"
       id="path24" />
  </g>
  <path
     fill="#063465"
     d="m 3.4247648,11.979632 10.7272732,0.05643 a 0.05485893,0.05485893 0 0 1 0.05486,0.05643 l -0.02978,0.946708 a 0.05485893,0.05485893 0 0 1 -0.05486,0.05329 L 2.3369918,13.10346 a 0.05485893,0.05485893 0 0 1 -0.05486,-0.05486 l 0.01254,-12.83699036 a 0.05485893,0.05485893 0 0 1 0.05486,-0.05486 H 16.285268 a 0.05485893,0.05485893 0 0 1 0.05486,0.05486 V 1.1975026 a 0.05485893,0.05485893 0 0 1 -0.05486,0.05486 l -12.8605012,0.0016 a 0.05485893,0.05485893 0 0 0 -0.05486,0.05486 V 11.92481 a 0.05485893,0.05485893 0 0 0 0.05486,0.05486 z"
     id="path30"
     style="fill:#eff6fe;fill-opacity:1;stroke-width:0.15674" />
  <path
     fill="#063465"
     d="m 23.283699,0.15674764 h 0.973354 a 0.05329154,0.05329154 0 0 1 0.04859,0.07367 L 16.064263,19.789979 a 0.05329154,0.05329154 0 0 1 -0.09248,0.01097 l -0.625388,-0.830721 a 0.05329154,0.05329154 0 0 1 -0.0063,-0.05329 L 23.233512,0.18966464 a 0.05329154,0.05329154 0 0 1 0.05016,-0.03292 z"
     id="path32"
     style="fill:#ffffff;fill-opacity:1;stroke-width:0.15674" />
  <path
     fill="#063465"
     d="m 29.366771,12.00471 0.943574,0.0094 a 0.05015674,0.05015674 0 0 0 0.04702,-0.06897 L 25.440439,0.22571264 a 0.05015674,0.05015674 0 0 1 0.04545,-0.06896 h 0.974922 a 0.05015674,0.05015674 0 0 1 0.04546,0.03135 L 31.913794,13.018824 a 0.05015674,0.05015674 0 0 1 -0.04545,0.06896 l -10.799373,0.05329 a 0.05015674,0.05015674 0 0 0 -0.04546,0.02978 l -3.144201,7.40909 a 0.05015674,0.05015674 0 0 1 -0.04545,0.03135 h -0.973354 a 0.05015674,0.05015674 0 0 1 -0.04545,-0.06896 L 24.82446,1.5313616 a 0.05015674,0.05015674 0 0 1 0.09248,0 l 4.404389,10.4435744 a 0.05015674,0.05015674 0 0 0 0.04545,0.02978 z m -4.543887,-7.8761754 -3.26489,7.7931034 q -0.02978,0.06897 0.04545,0.06897 h 0.882445 q 0.08464,0 0.117555,-0.07837 1.330721,-3.1567404 2.684953,-6.3025084 c 0.19906,-0.460815 -0.189655,-1.070533 -0.37931,-1.482759 a 0.04702194,0.04702194 0 0 0 -0.08621,0.0016 z m -1.106583,7.7915364 a 0.05172414,0.05172414 0 0 0 0.04859,0.07053 h 4.376176 a 0.05172414,0.05172414 0 0 0 0.04859,-0.07053 L 26,6.6959326 a 0.05172414,0.05172414 0 0 0 -0.09404,0 z"
     id="path34"
     style="fill:#ffffff;fill-opacity:1;stroke-width:0.15674" />
  <path
     fill="#063465"
     d="M 35.821317,19.783707 27.600313,0.24608964 a 0.06426332,0.06426332 0 0 1 0.05956,-0.08934 h 0.948275 a 0.06426332,0.06426332 0 0 1 0.05956,0.03918 L 36.542316,18.915366 a 0.06426332,0.06426332 0 0 1 -0.0078,0.0627 l -0.601881,0.819749 a 0.06426332,0.06426332 0 0 1 -0.111285,-0.01411 z"
     id="path36"
     style="fill:#ffffff;fill-opacity:1;stroke-width:0.15674" />
  <path
     fill="#063465"
     d="m 49.89185,15.81192 c -3.384013,2.746082 -8.036051,0.893417 -8.039185,-3.561128 q -0.0063,-5.9905964 -0.0016,-11.98275936 a 0.11128527,0.11128527 0 0 1 0.111317,-0.111285 h 0.902822 q 0.08307,0 0.08307,0.08464 -0.0063,5.94827596 0.0016,11.89498536 0,1.137931 0.221003,1.697492 c 1.203762,3.051724 6.206897,2.890282 7.139499,-0.285267 q 0.130094,-0.443573 0.137931,-1.402821 0.04545,-4.9733544 0.01411,-9.9435744 -0.0016,-0.09718 0.06897,-0.163009 l 0.84953,-0.810345 q 0.147335,-0.139498 0.147335,0.0627 0,6.255486 0,12.5015684 0,1.170846 -0.54232,2.272727 c -2.357366,4.782131 -9.934169,4.103448 -11.141065,-1.230408 q -0.188088,-0.829153 -0.189656,-3.119122 -0.0016,-5.7413794 0.0063,-11.48432636 0,-0.07523 0.07523,-0.07523 h 0.931035 q 0.08464,0 0.08464,0.08621 -0.0047,6.54231996 0.01567,13.07993736 0.01097,3.141066 2.700627,4.415361 c 2.230408,1.057993 5.152038,0.288401 6.452978,-1.901254 q 0.05486,-0.09248 -0.02978,-0.02508 z"
     id="path38"
     style="fill:#ffffff;fill-opacity:1;stroke-width:0.15674" />
  <path
     fill="#063465"
     d="m 50.826019,19.5533 c 1.992163,-1.272728 3.435736,-3.257054 3.829153,-5.598746 q 0.108151,-0.652038 0.117555,-3.128527 0.01881,-5.2915364 0.0031,-10.58620736 0,-0.08307 0.08464,-0.08307 h 0.935736 a 0.04702194,0.04702194 0 0 1 0.04702,0.04702 q -0.0047,5.66771096 -0.0047,11.15987436 0,2.194358 -0.19279,3.122258 c -0.815047,3.902821 -4.282132,6.537617 -8.202194,6.896551 -4.300941,0.394985 -8.551724,-1.329153 -9.677116,-5.855799 q -0.221003,-0.890282 -0.224138,-2.644201 -0.0078,-5.3526644 -0.0016,-10.7068964 0,-0.09561 0.07053,-0.16301 l 0.913793,-0.869906 q 0.06583,-0.06113 0.06583,0.02821 0.03918,5.821316 0.04545,11.6394984 0.0016,1.731975 0.224138,2.573668 0.518808,1.968652 2.059561,3.260188 c 3.91536,3.282131 10.239812,1.652037 11.489028,-3.509405 q 0.22257,-0.923197 0.219436,-2.860501 -0.0094,-6.0188094 -0.0016,-12.03918536 0,-0.07837 0.07994,-0.07837 h 0.891849 q 0.0674,0 0.0674,0.0674 0.05329,6.13793096 0.03919,12.27429536 c -0.0078,3.274294 -0.615987,4.838558 -2.907523,7.018808 q -0.172414,0.164577 0.02821,0.03605 z"
     id="path40"
     style="fill:#ffffff;fill-opacity:1;stroke-width:0.15674" />
  <path
     fill="#063465"
     d="m 1.2507838,1.1598826 0.0031,19.4028214 a 0.04858934,0.04858934 0 0 1 -0.04859,0.04859 h -1 a 0.04858934,0.04858934 0 0 1 -0.04859,-0.04859 V 2.1018886 a 0.04858934,0.04858934 0 0 1 0.01567,-0.03448 l 0.996865,-0.943573 a 0.04858934,0.04858934 0 0 1 0.0815,0.03605 z"
     id="path42"
     style="fill:#ffffff;fill-opacity:1;stroke-width:0.15674" />
  <path
     fill="#063465"
     d="m 5.6677118,4.4670926 h 9.6253912 a 0.05172414,0.05172414 0 0 1 0.03762,0.08777 l -0.992163,0.99373 a 0.05172414,0.05172414 0 0 1 -0.03762,0.01567 H 5.6175548 a 0.05172414,0.05172414 0 0 0 -0.05172,0.05173 l 0.04232,4.167711 a 0.05172414,0.05172414 0 0 0 0.05173,0.05172 H 15.716311 a 0.05172414,0.05172414 0 0 1 0.03762,0.08778 L 14.82133,10.916934 a 0.05172414,0.05172414 0 0 1 -0.03762,0.01567 H 4.5188198 a 0.05172414,0.05172414 0 0 1 -0.05172,-0.05172 V 2.3244576 a 0.05172414,0.05172414 0 0 1 0.05172,-0.05173 H 16.288412 a 0.05172414,0.05172414 0 0 1 0.05172,0.05173 v 0.99373 a 0.05172414,0.05172414 0 0 1 -0.05172,0.05172 H 5.6159868 a 0.05172414,0.05172414 0 0 0 -0.05172,0.05486 l 0.05172,0.99373 a 0.05172414,0.05172414 0 0 0 0.05173,0.04859 z"
     id="path44"
     style="fill:#ffffff;fill-opacity:1;stroke-width:0.15674" />
  <path
     fill="#063465"
     d="m 4.4137928,15.242955 h -0.996865 a 0.04702194,0.04702194 0 0 0 -0.04702,0.04702 v 5.274294 a 0.04702194,0.04702194 0 0 1 -0.04702,0.04702 h -0.973358 a 0.04702194,0.04702194 0 0 1 -0.04702,-0.04702 l 0.01411,-6.371473 a 0.04702194,0.04702194 0 0 1 0.04702,-0.04702 H 14.153609 a 0.04702194,0.04702194 0 0 1 0.04702,0.04859 l -0.02194,1.003135 a 0.04702194,0.04702194 0 0 1 -0.04702,0.04546 H 5.6112928 a 0.04702194,0.04702194 0 0 0 -0.04702,0.04702 v 3.33699 a 0.04702194,0.04702194 0 0 1 -0.01411,0.03292 l -0.989028,0.987461 a 0.04702194,0.04702194 0 0 1 -0.07994,-0.03292 l -0.02038,-4.324451 a 0.04702194,0.04702194 0 0 0 -0.04702,-0.04702 z"
     id="path50"
     style="fill:#ffffff;fill-opacity:1;stroke-width:0.15674" />
  <path
     fill="#063465"
     d="m 21.912226,16.340134 h 9.211598 a 0.04858934,0.04858934 0 0 1 0.04546,0.02978 l 1.742947,4.167712 a 0.04858934,0.04858934 0 0 1 -0.04232,0.0674 l -0.967085,0.02194 a 0.04858934,0.04858934 0 0 1 -0.04545,-0.02978 l -1.33073,-3.169278 a 0.04858934,0.04858934 0 0 0 -0.04545,-0.02978 l -9.057994,-0.0094 a 0.04858934,0.04858934 0 0 0 -0.04545,0.02978 l -1.326019,3.16301 a 0.04858934,0.04858934 0 0 1 -0.04545,0.02978 h -0.976489 a 0.04858934,0.04858934 0 0 1 -0.04545,-0.0674 l 2.673981,-6.368338 a 0.04858934,0.04858934 0 0 1 0.04545,-0.02978 H 32.34953 a 0.04858934,0.04858934 0 0 1 0.04545,0.02978 l 2.670847,6.360501 a 0.04858934,0.04858934 0 0 1 -0.04232,0.0674 l -0.962382,0.02665 a 0.04858934,0.04858934 0 0 1 -0.04546,-0.02978 l -2.247649,-5.327587 a 0.04858934,0.04858934 0 0 0 -0.04545,-0.02978 h -9.380878 a 0.04858934,0.04858934 0 0 0 -0.04389,0.02978 l -0.429467,1 a 0.04858934,0.04858934 0 0 0 0.04389,0.0674 z"
     id="path52"
     style="fill:#ffffff;fill-opacity:1;stroke-width:0.15674" />
</svg>
